<svg xmlns="http://www.w3.org/2000/svg" xmlns:xlink="http://www.w3.org/1999/xlink" width="120" zoomAndPan="magnify" viewBox="0 0 90 89.999999" height="120" preserveAspectRatio="xMidYMid meet" version="1.0"><defs><filter x="0%" y="0%" width="100%" height="100%" id="17ab270e61"><feColorMatrix values="0 0 0 0 1 0 0 0 0 1 0 0 0 0 1 0 0 0 1 0" color-interpolation-filters="sRGB"/></filter><mask id="b3e131b144"><g filter="url(#17ab270e61)"><rect x="-9" width="108" fill="#000000" y="-9" height="107.999999" fill-opacity="0.33"/></g></mask><clipPath id="86449702b2"><rect x="0" width="23" y="0" height="23"/></clipPath><mask id="ed53049e7f"><g filter="url(#17ab270e61)"><rect x="-9" width="108" fill="#000000" y="-9" height="107.999999" fill-opacity="0.33"/></g></mask><clipPath id="1db02af36b"><rect x="0" width="24" y="0" height="23"/></clipPath><mask id="82f26151c6"><g filter="url(#17ab270e61)"><rect x="-9" width="108" fill="#000000" y="-9" height="107.999999" fill-opacity="0.33"/></g></mask><clipPath id="a029be6252"><rect x="0" width="23" y="0" height="24"/></clipPath><mask id="73a26a84b7"><g filter="url(#17ab270e61)"><rect x="-9" width="108" fill="#000000" y="-9" height="107.999999" fill-opacity="0.33"/></g></mask><clipPath id="1a536ba737"><rect x="0" width="23" y="0" height="24"/></clipPath><mask id="092c79645c"><g filter="url(#17ab270e61)"><rect x="-9" width="108" fill="#000000" y="-9" height="107.999999" fill-opacity="0.33"/></g></mask><clipPath id="15319a920a"><rect x="0" width="23" y="0" height="24"/></clipPath><mask id="a36ab98ce9"><g filter="url(#17ab270e61)"><rect x="-9" width="108" fill="#000000" y="-9" height="107.999999" fill-opacity="0.33"/></g></mask><clipPath id="45b7df18f2"><rect x="0" width="24" y="0" height="24"/></clipPath><mask id="f75eed2ba7"><g filter="url(#17ab270e61)"><rect x="-9" width="108" fill="#000000" y="-9" height="107.999999" fill-opacity="0.33"/></g></mask><clipPath id="ad4865f925"><rect x="0" width="23" y="0" height="23"/></clipPath><mask id="4ad566a39e"><g filter="url(#17ab270e61)"><rect x="-9" width="108" fill="#000000" y="-9" height="107.999999" fill-opacity="0.33"/></g></mask><clipPath id="b018fe09ed"><rect x="0" width="24" y="0" height="23"/></clipPath></defs><g mask="url(#b3e131b144)"><g transform="matrix(1, 0, 0, 1, 0, -0.00000000000000949)"><g clip-path="url(#86449702b2)"><path fill="#ff8400" d="M 12.058594 11.386719 C 12.058594 11.386719 16.421875 21.84375 12.191406 21.675781 C 7.402344 21.480469 12.058594 11.386719 12.058594 11.386719 Z M 12.058594 11.386719 " fill-opacity="1" fill-rule="nonzero"/><path fill="#ff8400" d="M 11.984375 11.675781 C 11.984375 11.675781 8.605469 22.488281 5.476562 19.644531 C 1.929688 16.417969 11.984375 11.675781 11.984375 11.675781 Z M 11.984375 11.675781 " fill-opacity="1" fill-rule="nonzero"/><path fill="#ff8400" d="M 11.742188 11.851562 C 11.742188 11.851562 2.203125 17.964844 1.636719 13.769531 C 0.996094 9.019531 11.742188 11.851562 11.742188 11.851562 Z M 11.742188 11.851562 " fill-opacity="1" fill-rule="nonzero"/><path fill="#ff8400" d="M 11.445312 11.828125 C 11.445312 11.828125 0.210938 10.378906 2.472656 6.804688 C 5.03125 2.753906 11.445312 11.828125 11.445312 11.828125 Z M 11.445312 11.828125 " fill-opacity="1" fill-rule="nonzero"/><path fill="#ff8400" d="M 11.230469 11.621094 C 11.230469 11.621094 3.558594 3.289062 7.585938 2.003906 C 12.15625 0.546875 11.230469 11.621094 11.230469 11.621094 Z M 11.230469 11.621094 " fill-opacity="1" fill-rule="nonzero"/><path fill="#ff8400" d="M 11.203125 11.324219 C 11.203125 11.324219 10.679688 0.0078125 14.59375 1.613281 C 19.027344 3.433594 11.203125 11.324219 11.203125 11.324219 Z M 11.203125 11.324219 " fill-opacity="1" fill-rule="nonzero"/><path fill="#ff8400" d="M 11.371094 11.082031 C 11.371094 11.082031 18.242188 2.074219 20.210938 5.820312 C 22.4375 10.066406 11.371094 11.082031 11.371094 11.082031 Z M 11.371094 11.082031 " fill-opacity="1" fill-rule="nonzero"/><path fill="#ff8400" d="M 11.65625 11 C 11.65625 11 22.710938 8.515625 21.808594 12.652344 C 20.789062 17.335938 11.65625 11 11.65625 11 Z M 11.65625 11 " fill-opacity="1" fill-rule="nonzero"/><path fill="#ff8400" d="M 11.929688 11.121094 C 11.929688 11.121094 21.988281 16.324219 18.640625 18.910156 C 14.851562 21.84375 11.929688 11.121094 11.929688 11.121094 Z M 11.929688 11.121094 " fill-opacity="1" fill-rule="nonzero"/><path fill="#ff9d00" d="M 14.128906 11.324219 C 14.128906 11.679688 14.0625 12.023438 13.925781 12.351562 C 13.789062 12.679688 13.597656 12.96875 13.347656 13.222656 C 13.09375 13.472656 12.804688 13.667969 12.476562 13.804688 C 12.148438 13.941406 11.808594 14.007812 11.453125 14.007812 C 11.097656 14.007812 10.757812 13.941406 10.429688 13.804688 C 10.101562 13.667969 9.8125 13.472656 9.5625 13.222656 C 9.308594 12.96875 9.117188 12.679688 8.980469 12.351562 C 8.84375 12.023438 8.777344 11.679688 8.777344 11.324219 C 8.777344 10.964844 8.84375 10.625 8.980469 10.292969 C 9.117188 9.964844 9.308594 9.675781 9.5625 9.421875 C 9.8125 9.171875 10.101562 8.976562 10.429688 8.839844 C 10.757812 8.703125 11.097656 8.636719 11.453125 8.636719 C 11.808594 8.636719 12.148438 8.703125 12.476562 8.839844 C 12.804688 8.976562 13.09375 9.171875 13.347656 9.421875 C 13.597656 9.675781 13.789062 9.964844 13.925781 10.292969 C 14.0625 10.625 14.128906 10.964844 14.128906 11.324219 Z M 14.128906 11.324219 " fill-opacity="1" fill-rule="nonzero"/></g></g></g><g mask="url(#ed53049e7f)"><g transform="matrix(1, 0, 0, 1, 44, -0.00000000000000949)"><g clip-path="url(#1db02af36b)"><path fill="#ff8400" d="M 12.847656 11.386719 C 12.847656 11.386719 17.210938 21.84375 12.980469 21.675781 C 8.191406 21.480469 12.847656 11.386719 12.847656 11.386719 Z M 12.847656 11.386719 " fill-opacity="1" fill-rule="nonzero"/><path fill="#ff8400" d="M 12.773438 11.675781 C 12.773438 11.675781 9.398438 22.488281 6.265625 19.644531 C 2.71875 16.417969 12.773438 11.675781 12.773438 11.675781 Z M 12.773438 11.675781 " fill-opacity="1" fill-rule="nonzero"/><path fill="#ff8400" d="M 12.53125 11.851562 C 12.53125 11.851562 2.996094 17.964844 2.425781 13.769531 C 1.785156 9.019531 12.53125 11.851562 12.53125 11.851562 Z M 12.53125 11.851562 " fill-opacity="1" fill-rule="nonzero"/><path fill="#ff8400" d="M 12.234375 11.828125 C 12.234375 11.828125 1 10.378906 3.261719 6.804688 C 5.820312 2.753906 12.234375 11.828125 12.234375 11.828125 Z M 12.234375 11.828125 " fill-opacity="1" fill-rule="nonzero"/><path fill="#ff8400" d="M 12.019531 11.621094 C 12.019531 11.621094 4.347656 3.289062 8.378906 2.003906 C 12.945312 0.546875 12.019531 11.621094 12.019531 11.621094 Z M 12.019531 11.621094 " fill-opacity="1" fill-rule="nonzero"/><path fill="#ff8400" d="M 11.992188 11.324219 C 11.992188 11.324219 11.46875 0.0078125 15.382812 1.613281 C 19.816406 3.433594 11.992188 11.324219 11.992188 11.324219 Z M 11.992188 11.324219 " fill-opacity="1" fill-rule="nonzero"/><path fill="#ff8400" d="M 12.160156 11.082031 C 12.160156 11.082031 19.03125 2.074219 21 5.820312 C 23.226562 10.066406 12.160156 11.082031 12.160156 11.082031 Z M 12.160156 11.082031 " fill-opacity="1" fill-rule="nonzero"/><path fill="#ff8400" d="M 12.445312 11 C 12.445312 11 23.5 8.515625 22.597656 12.652344 C 21.578125 17.335938 12.445312 11 12.445312 11 Z M 12.445312 11 " fill-opacity="1" fill-rule="nonzero"/><path fill="#ff8400" d="M 12.71875 11.121094 C 12.71875 11.121094 22.777344 16.324219 19.433594 18.910156 C 15.640625 21.84375 12.71875 11.121094 12.71875 11.121094 Z M 12.71875 11.121094 " fill-opacity="1" fill-rule="nonzero"/><path fill="#ff9d00" d="M 14.917969 11.324219 C 14.917969 11.679688 14.851562 12.023438 14.714844 12.351562 C 14.582031 12.679688 14.386719 12.96875 14.136719 13.222656 C 13.886719 13.472656 13.59375 13.667969 13.265625 13.804688 C 12.9375 13.941406 12.597656 14.007812 12.242188 14.007812 C 11.886719 14.007812 11.546875 13.941406 11.21875 13.804688 C 10.890625 13.667969 10.601562 13.472656 10.351562 13.222656 C 10.097656 12.96875 9.90625 12.679688 9.769531 12.351562 C 9.632812 12.023438 9.566406 11.679688 9.566406 11.324219 C 9.566406 10.964844 9.632812 10.625 9.769531 10.292969 C 9.90625 9.964844 10.097656 9.675781 10.351562 9.421875 C 10.601562 9.171875 10.890625 8.976562 11.21875 8.839844 C 11.546875 8.703125 11.886719 8.636719 12.242188 8.636719 C 12.597656 8.636719 12.9375 8.703125 13.265625 8.839844 C 13.59375 8.976562 13.886719 9.171875 14.136719 9.421875 C 14.386719 9.675781 14.582031 9.964844 14.714844 10.292969 C 14.851562 10.625 14.917969 10.964844 14.917969 11.324219 Z M 14.917969 11.324219 " fill-opacity="1" fill-rule="nonzero"/></g></g></g><g mask="url(#82f26151c6)"><g transform="matrix(1, 0, 0, 1, 22, 22)"><g clip-path="url(#a029be6252)"><path fill="#ff8400" d="M 12.136719 11.886719 C 12.136719 11.886719 16.5 22.34375 12.273438 22.175781 C 7.480469 21.980469 12.136719 11.886719 12.136719 11.886719 Z M 12.136719 11.886719 " fill-opacity="1" fill-rule="nonzero"/><path fill="#ff8400" d="M 12.0625 12.175781 C 12.0625 12.175781 8.6875 22.988281 5.554688 20.144531 C 2.011719 16.917969 12.0625 12.175781 12.0625 12.175781 Z M 12.0625 12.175781 " fill-opacity="1" fill-rule="nonzero"/><path fill="#ff8400" d="M 11.820312 12.351562 C 11.820312 12.351562 2.285156 18.464844 1.714844 14.269531 C 1.074219 9.519531 11.820312 12.351562 11.820312 12.351562 Z M 11.820312 12.351562 " fill-opacity="1" fill-rule="nonzero"/><path fill="#ff8400" d="M 11.523438 12.328125 C 11.523438 12.328125 0.289062 10.878906 2.550781 7.304688 C 5.113281 3.253906 11.523438 12.328125 11.523438 12.328125 Z M 11.523438 12.328125 " fill-opacity="1" fill-rule="nonzero"/><path fill="#ff8400" d="M 11.308594 12.121094 C 11.308594 12.121094 3.636719 3.789062 7.667969 2.503906 C 12.234375 1.046875 11.308594 12.121094 11.308594 12.121094 Z M 11.308594 12.121094 " fill-opacity="1" fill-rule="nonzero"/><path fill="#ff8400" d="M 11.28125 11.824219 C 11.28125 11.824219 10.757812 0.507812 14.671875 2.113281 C 19.109375 3.933594 11.28125 11.824219 11.28125 11.824219 Z M 11.28125 11.824219 " fill-opacity="1" fill-rule="nonzero"/><path fill="#ff8400" d="M 11.449219 11.582031 C 11.449219 11.582031 18.320312 2.574219 20.289062 6.320312 C 22.515625 10.566406 11.449219 11.582031 11.449219 11.582031 Z M 11.449219 11.582031 " fill-opacity="1" fill-rule="nonzero"/><path fill="#ff8400" d="M 11.734375 11.5 C 11.734375 11.5 22.789062 9.015625 21.886719 13.152344 C 20.867188 17.835938 11.734375 11.5 11.734375 11.5 Z M 11.734375 11.5 " fill-opacity="1" fill-rule="nonzero"/><path fill="#ff8400" d="M 12.007812 11.621094 C 12.007812 11.621094 22.070312 16.824219 18.722656 19.410156 C 14.929688 22.34375 12.007812 11.621094 12.007812 11.621094 Z M 12.007812 11.621094 " fill-opacity="1" fill-rule="nonzero"/><path fill="#ff9d00" d="M 14.210938 11.824219 C 14.210938 12.179688 14.140625 12.523438 14.003906 12.851562 C 13.871094 13.179688 13.675781 13.46875 13.425781 13.722656 C 13.175781 13.972656 12.886719 14.167969 12.558594 14.304688 C 12.230469 14.441406 11.886719 14.507812 11.53125 14.507812 C 11.175781 14.507812 10.835938 14.441406 10.507812 14.304688 C 10.179688 14.167969 9.890625 13.972656 9.640625 13.722656 C 9.390625 13.46875 9.195312 13.179688 9.058594 12.851562 C 8.921875 12.523438 8.855469 12.179688 8.855469 11.824219 C 8.855469 11.464844 8.921875 11.125 9.058594 10.792969 C 9.195312 10.464844 9.390625 10.175781 9.640625 9.921875 C 9.890625 9.671875 10.179688 9.476562 10.507812 9.339844 C 10.835938 9.203125 11.175781 9.136719 11.53125 9.136719 C 11.886719 9.136719 12.230469 9.203125 12.558594 9.339844 C 12.886719 9.476562 13.175781 9.671875 13.425781 9.921875 C 13.675781 10.175781 13.871094 10.464844 14.003906 10.792969 C 14.140625 11.125 14.210938 11.464844 14.210938 11.824219 Z M 14.210938 11.824219 " fill-opacity="1" fill-rule="nonzero"/></g></g></g><g mask="url(#73a26a84b7)"><g transform="matrix(1, 0, 0, 1, 67, 22)"><g clip-path="url(#1a536ba737)"><path fill="#ff8400" d="M 12.136719 11.886719 C 12.136719 11.886719 16.5 22.34375 12.273438 22.175781 C 7.480469 21.980469 12.136719 11.886719 12.136719 11.886719 Z M 12.136719 11.886719 " fill-opacity="1" fill-rule="nonzero"/><path fill="#ff8400" d="M 12.0625 12.175781 C 12.0625 12.175781 8.6875 22.988281 5.554688 20.144531 C 2.011719 16.917969 12.0625 12.175781 12.0625 12.175781 Z M 12.0625 12.175781 " fill-opacity="1" fill-rule="nonzero"/><path fill="#ff8400" d="M 11.820312 12.351562 C 11.820312 12.351562 2.285156 18.464844 1.714844 14.269531 C 1.074219 9.519531 11.820312 12.351562 11.820312 12.351562 Z M 11.820312 12.351562 " fill-opacity="1" fill-rule="nonzero"/><path fill="#ff8400" d="M 11.523438 12.328125 C 11.523438 12.328125 0.289062 10.878906 2.550781 7.304688 C 5.113281 3.253906 11.523438 12.328125 11.523438 12.328125 Z M 11.523438 12.328125 " fill-opacity="1" fill-rule="nonzero"/><path fill="#ff8400" d="M 11.308594 12.121094 C 11.308594 12.121094 3.636719 3.789062 7.667969 2.503906 C 12.234375 1.046875 11.308594 12.121094 11.308594 12.121094 Z M 11.308594 12.121094 " fill-opacity="1" fill-rule="nonzero"/><path fill="#ff8400" d="M 11.28125 11.824219 C 11.28125 11.824219 10.757812 0.507812 14.671875 2.113281 C 19.109375 3.933594 11.28125 11.824219 11.28125 11.824219 Z M 11.28125 11.824219 " fill-opacity="1" fill-rule="nonzero"/><path fill="#ff8400" d="M 11.449219 11.582031 C 11.449219 11.582031 18.320312 2.574219 20.289062 6.320312 C 22.515625 10.566406 11.449219 11.582031 11.449219 11.582031 Z M 11.449219 11.582031 " fill-opacity="1" fill-rule="nonzero"/><path fill="#ff8400" d="M 11.734375 11.5 C 11.734375 11.5 22.789062 9.015625 21.886719 13.152344 C 20.867188 17.835938 11.734375 11.5 11.734375 11.5 Z M 11.734375 11.5 " fill-opacity="1" fill-rule="nonzero"/><path fill="#ff8400" d="M 12.007812 11.621094 C 12.007812 11.621094 22.070312 16.824219 18.722656 19.410156 C 14.929688 22.34375 12.007812 11.621094 12.007812 11.621094 Z M 12.007812 11.621094 " fill-opacity="1" fill-rule="nonzero"/><path fill="#ff9d00" d="M 14.210938 11.824219 C 14.210938 12.179688 14.140625 12.523438 14.003906 12.851562 C 13.871094 13.179688 13.675781 13.46875 13.425781 13.722656 C 13.175781 13.972656 12.886719 14.167969 12.558594 14.304688 C 12.230469 14.441406 11.886719 14.507812 11.53125 14.507812 C 11.175781 14.507812 10.835938 14.441406 10.507812 14.304688 C 10.179688 14.167969 9.890625 13.972656 9.640625 13.722656 C 9.390625 13.46875 9.195312 13.179688 9.058594 12.851562 C 8.921875 12.523438 8.855469 12.179688 8.855469 11.824219 C 8.855469 11.464844 8.921875 11.125 9.058594 10.792969 C 9.195312 10.464844 9.390625 10.175781 9.640625 9.921875 C 9.890625 9.671875 10.179688 9.476562 10.507812 9.339844 C 10.835938 9.203125 11.175781 9.136719 11.53125 9.136719 C 11.886719 9.136719 12.230469 9.203125 12.558594 9.339844 C 12.886719 9.476562 13.175781 9.671875 13.425781 9.921875 C 13.675781 10.175781 13.871094 10.464844 14.003906 10.792969 C 14.140625 11.125 14.210938 11.464844 14.210938 11.824219 Z M 14.210938 11.824219 " fill-opacity="1" fill-rule="nonzero"/></g></g></g><g mask="url(#092c79645c)"><g transform="matrix(1, 0, 0, 1, 0, 44)"><g clip-path="url(#15319a920a)"><path fill="#ff8400" d="M 12.058594 12.386719 C 12.058594 12.386719 16.421875 22.84375 12.191406 22.675781 C 7.402344 22.480469 12.058594 12.386719 12.058594 12.386719 Z M 12.058594 12.386719 " fill-opacity="1" fill-rule="nonzero"/><path fill="#ff8400" d="M 11.984375 12.675781 C 11.984375 12.675781 8.605469 23.488281 5.476562 20.644531 C 1.929688 17.417969 11.984375 12.675781 11.984375 12.675781 Z M 11.984375 12.675781 " fill-opacity="1" fill-rule="nonzero"/><path fill="#ff8400" d="M 11.742188 12.851562 C 11.742188 12.851562 2.203125 18.964844 1.636719 14.769531 C 0.996094 10.019531 11.742188 12.851562 11.742188 12.851562 Z M 11.742188 12.851562 " fill-opacity="1" fill-rule="nonzero"/><path fill="#ff8400" d="M 11.445312 12.828125 C 11.445312 12.828125 0.210938 11.378906 2.472656 7.804688 C 5.03125 3.753906 11.445312 12.828125 11.445312 12.828125 Z M 11.445312 12.828125 " fill-opacity="1" fill-rule="nonzero"/><path fill="#ff8400" d="M 11.230469 12.621094 C 11.230469 12.621094 3.558594 4.289062 7.585938 3.003906 C 12.15625 1.546875 11.230469 12.621094 11.230469 12.621094 Z M 11.230469 12.621094 " fill-opacity="1" fill-rule="nonzero"/><path fill="#ff8400" d="M 11.203125 12.324219 C 11.203125 12.324219 10.679688 1.007812 14.59375 2.613281 C 19.027344 4.433594 11.203125 12.324219 11.203125 12.324219 Z M 11.203125 12.324219 " fill-opacity="1" fill-rule="nonzero"/><path fill="#ff8400" d="M 11.371094 12.082031 C 11.371094 12.082031 18.242188 3.074219 20.210938 6.820312 C 22.4375 11.066406 11.371094 12.082031 11.371094 12.082031 Z M 11.371094 12.082031 " fill-opacity="1" fill-rule="nonzero"/><path fill="#ff8400" d="M 11.65625 12 C 11.65625 12 22.710938 9.515625 21.808594 13.652344 C 20.789062 18.335938 11.65625 12 11.65625 12 Z M 11.65625 12 " fill-opacity="1" fill-rule="nonzero"/><path fill="#ff8400" d="M 11.929688 12.121094 C 11.929688 12.121094 21.988281 17.324219 18.640625 19.910156 C 14.851562 22.84375 11.929688 12.121094 11.929688 12.121094 Z M 11.929688 12.121094 " fill-opacity="1" fill-rule="nonzero"/><path fill="#ff9d00" d="M 14.128906 12.324219 C 14.128906 12.679688 14.0625 13.023438 13.925781 13.351562 C 13.789062 13.679688 13.597656 13.96875 13.347656 14.222656 C 13.09375 14.472656 12.804688 14.667969 12.476562 14.804688 C 12.148438 14.941406 11.808594 15.007812 11.453125 15.007812 C 11.097656 15.007812 10.757812 14.941406 10.429688 14.804688 C 10.101562 14.667969 9.8125 14.472656 9.5625 14.222656 C 9.308594 13.96875 9.117188 13.679688 8.980469 13.351562 C 8.84375 13.023438 8.777344 12.679688 8.777344 12.324219 C 8.777344 11.964844 8.84375 11.625 8.980469 11.292969 C 9.117188 10.964844 9.308594 10.675781 9.5625 10.421875 C 9.8125 10.171875 10.101562 9.976562 10.429688 9.839844 C 10.757812 9.703125 11.097656 9.636719 11.453125 9.636719 C 11.808594 9.636719 12.148438 9.703125 12.476562 9.839844 C 12.804688 9.976562 13.09375 10.171875 13.347656 10.421875 C 13.597656 10.675781 13.789062 10.964844 13.925781 11.292969 C 14.0625 11.625 14.128906 11.964844 14.128906 12.324219 Z M 14.128906 12.324219 " fill-opacity="1" fill-rule="nonzero"/></g></g></g><g mask="url(#a36ab98ce9)"><g transform="matrix(1, 0, 0, 1, 44, 44)"><g clip-path="url(#45b7df18f2)"><path fill="#ff8400" d="M 12.847656 12.386719 C 12.847656 12.386719 17.210938 22.84375 12.980469 22.675781 C 8.191406 22.480469 12.847656 12.386719 12.847656 12.386719 Z M 12.847656 12.386719 " fill-opacity="1" fill-rule="nonzero"/><path fill="#ff8400" d="M 12.773438 12.675781 C 12.773438 12.675781 9.398438 23.488281 6.265625 20.644531 C 2.71875 17.417969 12.773438 12.675781 12.773438 12.675781 Z M 12.773438 12.675781 " fill-opacity="1" fill-rule="nonzero"/><path fill="#ff8400" d="M 12.53125 12.851562 C 12.53125 12.851562 2.996094 18.964844 2.425781 14.769531 C 1.785156 10.019531 12.53125 12.851562 12.53125 12.851562 Z M 12.53125 12.851562 " fill-opacity="1" fill-rule="nonzero"/><path fill="#ff8400" d="M 12.234375 12.828125 C 12.234375 12.828125 1 11.378906 3.261719 7.804688 C 5.820312 3.753906 12.234375 12.828125 12.234375 12.828125 Z M 12.234375 12.828125 " fill-opacity="1" fill-rule="nonzero"/><path fill="#ff8400" d="M 12.019531 12.621094 C 12.019531 12.621094 4.347656 4.289062 8.378906 3.003906 C 12.945312 1.546875 12.019531 12.621094 12.019531 12.621094 Z M 12.019531 12.621094 " fill-opacity="1" fill-rule="nonzero"/><path fill="#ff8400" d="M 11.992188 12.324219 C 11.992188 12.324219 11.46875 1.007812 15.382812 2.613281 C 19.816406 4.433594 11.992188 12.324219 11.992188 12.324219 Z M 11.992188 12.324219 " fill-opacity="1" fill-rule="nonzero"/><path fill="#ff8400" d="M 12.160156 12.082031 C 12.160156 12.082031 19.03125 3.074219 21 6.820312 C 23.226562 11.066406 12.160156 12.082031 12.160156 12.082031 Z M 12.160156 12.082031 " fill-opacity="1" fill-rule="nonzero"/><path fill="#ff8400" d="M 12.445312 12 C 12.445312 12 23.5 9.515625 22.597656 13.652344 C 21.578125 18.335938 12.445312 12 12.445312 12 Z M 12.445312 12 " fill-opacity="1" fill-rule="nonzero"/><path fill="#ff8400" d="M 12.71875 12.121094 C 12.71875 12.121094 22.777344 17.324219 19.433594 19.910156 C 15.640625 22.84375 12.71875 12.121094 12.71875 12.121094 Z M 12.71875 12.121094 " fill-opacity="1" fill-rule="nonzero"/><path fill="#ff9d00" d="M 14.917969 12.324219 C 14.917969 12.679688 14.851562 13.023438 14.714844 13.351562 C 14.582031 13.679688 14.386719 13.96875 14.136719 14.222656 C 13.886719 14.472656 13.59375 14.667969 13.265625 14.804688 C 12.9375 14.941406 12.597656 15.007812 12.242188 15.007812 C 11.886719 15.007812 11.546875 14.941406 11.21875 14.804688 C 10.890625 14.667969 10.601562 14.472656 10.351562 14.222656 C 10.097656 13.96875 9.90625 13.679688 9.769531 13.351562 C 9.632812 13.023438 9.566406 12.679688 9.566406 12.324219 C 9.566406 11.964844 9.632812 11.625 9.769531 11.292969 C 9.90625 10.964844 10.097656 10.675781 10.351562 10.421875 C 10.601562 10.171875 10.890625 9.976562 11.21875 9.839844 C 11.546875 9.703125 11.886719 9.636719 12.242188 9.636719 C 12.597656 9.636719 12.9375 9.703125 13.265625 9.839844 C 13.59375 9.976562 13.886719 10.171875 14.136719 10.421875 C 14.386719 10.675781 14.582031 10.964844 14.714844 11.292969 C 14.851562 11.625 14.917969 11.964844 14.917969 12.324219 Z M 14.917969 12.324219 " fill-opacity="1" fill-rule="nonzero"/></g></g></g><g mask="url(#f75eed2ba7)"><g transform="matrix(1, 0, 0, 1, 22, 67)"><g clip-path="url(#ad4865f925)"><path fill="#ff8400" d="M 12.03125 11.886719 C 12.03125 11.886719 16.394531 22.34375 12.167969 22.175781 C 7.375 21.980469 12.03125 11.886719 12.03125 11.886719 Z M 12.03125 11.886719 " fill-opacity="1" fill-rule="nonzero"/><path fill="#ff8400" d="M 11.957031 12.175781 C 11.957031 12.175781 8.582031 22.988281 5.449219 20.144531 C 1.90625 16.917969 11.957031 12.175781 11.957031 12.175781 Z M 11.957031 12.175781 " fill-opacity="1" fill-rule="nonzero"/><path fill="#ff8400" d="M 11.714844 12.351562 C 11.714844 12.351562 2.179688 18.464844 1.613281 14.269531 C 0.96875 9.519531 11.714844 12.351562 11.714844 12.351562 Z M 11.714844 12.351562 " fill-opacity="1" fill-rule="nonzero"/><path fill="#ff8400" d="M 11.421875 12.328125 C 11.421875 12.328125 0.183594 10.878906 2.445312 7.304688 C 5.007812 3.253906 11.421875 12.328125 11.421875 12.328125 Z M 11.421875 12.328125 " fill-opacity="1" fill-rule="nonzero"/><path fill="#ff8400" d="M 11.207031 12.121094 C 11.207031 12.121094 3.53125 3.789062 7.5625 2.503906 C 12.128906 1.046875 11.207031 12.121094 11.207031 12.121094 Z M 11.207031 12.121094 " fill-opacity="1" fill-rule="nonzero"/><path fill="#ff8400" d="M 11.175781 11.824219 C 11.175781 11.824219 10.652344 0.507812 14.566406 2.113281 C 19.003906 3.933594 11.175781 11.824219 11.175781 11.824219 Z M 11.175781 11.824219 " fill-opacity="1" fill-rule="nonzero"/><path fill="#ff8400" d="M 11.34375 11.582031 C 11.34375 11.582031 18.214844 2.574219 20.183594 6.320312 C 22.414062 10.566406 11.34375 11.582031 11.34375 11.582031 Z M 11.34375 11.582031 " fill-opacity="1" fill-rule="nonzero"/><path fill="#ff8400" d="M 11.628906 11.5 C 11.628906 11.5 22.683594 9.015625 21.78125 13.152344 C 20.761719 17.835938 11.628906 11.5 11.628906 11.5 Z M 11.628906 11.5 " fill-opacity="1" fill-rule="nonzero"/><path fill="#ff8400" d="M 11.902344 11.621094 C 11.902344 11.621094 21.964844 16.824219 18.617188 19.410156 C 14.824219 22.34375 11.902344 11.621094 11.902344 11.621094 Z M 11.902344 11.621094 " fill-opacity="1" fill-rule="nonzero"/><path fill="#ff9d00" d="M 14.105469 11.824219 C 14.105469 12.179688 14.035156 12.523438 13.902344 12.851562 C 13.765625 13.179688 13.570312 13.46875 13.320312 13.722656 C 13.070312 13.972656 12.78125 14.167969 12.453125 14.304688 C 12.125 14.441406 11.78125 14.507812 11.425781 14.507812 C 11.074219 14.507812 10.730469 14.441406 10.402344 14.304688 C 10.074219 14.167969 9.785156 13.972656 9.535156 13.722656 C 9.285156 13.46875 9.089844 13.179688 8.953125 12.851562 C 8.820312 12.523438 8.75 12.179688 8.75 11.824219 C 8.75 11.464844 8.820312 11.125 8.953125 10.792969 C 9.089844 10.464844 9.285156 10.175781 9.535156 9.921875 C 9.785156 9.671875 10.074219 9.476562 10.402344 9.339844 C 10.730469 9.203125 11.074219 9.136719 11.425781 9.136719 C 11.78125 9.136719 12.125 9.203125 12.453125 9.339844 C 12.78125 9.476562 13.070312 9.671875 13.320312 9.921875 C 13.570312 10.175781 13.765625 10.464844 13.902344 10.792969 C 14.035156 11.125 14.105469 11.464844 14.105469 11.824219 Z M 14.105469 11.824219 " fill-opacity="1" fill-rule="nonzero"/></g></g></g><g mask="url(#4ad566a39e)"><g transform="matrix(1, 0, 0, 1, 66, 67)"><g clip-path="url(#b018fe09ed)"><path fill="#ff8400" d="M 13.03125 11.886719 C 13.03125 11.886719 17.394531 22.34375 13.167969 22.175781 C 8.375 21.980469 13.03125 11.886719 13.03125 11.886719 Z M 13.03125 11.886719 " fill-opacity="1" fill-rule="nonzero"/><path fill="#ff8400" d="M 12.957031 12.175781 C 12.957031 12.175781 9.582031 22.988281 6.449219 20.144531 C 2.90625 16.917969 12.957031 12.175781 12.957031 12.175781 Z M 12.957031 12.175781 " fill-opacity="1" fill-rule="nonzero"/><path fill="#ff8400" d="M 12.714844 12.351562 C 12.714844 12.351562 3.179688 18.464844 2.613281 14.269531 C 1.96875 9.519531 12.714844 12.351562 12.714844 12.351562 Z M 12.714844 12.351562 " fill-opacity="1" fill-rule="nonzero"/><path fill="#ff8400" d="M 12.421875 12.328125 C 12.421875 12.328125 1.183594 10.878906 3.445312 7.304688 C 6.007812 3.253906 12.421875 12.328125 12.421875 12.328125 Z M 12.421875 12.328125 " fill-opacity="1" fill-rule="nonzero"/><path fill="#ff8400" d="M 12.207031 12.121094 C 12.207031 12.121094 4.53125 3.789062 8.5625 2.503906 C 13.128906 1.046875 12.207031 12.121094 12.207031 12.121094 Z M 12.207031 12.121094 " fill-opacity="1" fill-rule="nonzero"/><path fill="#ff8400" d="M 12.175781 11.824219 C 12.175781 11.824219 11.652344 0.507812 15.566406 2.113281 C 20.003906 3.933594 12.175781 11.824219 12.175781 11.824219 Z M 12.175781 11.824219 " fill-opacity="1" fill-rule="nonzero"/><path fill="#ff8400" d="M 12.34375 11.582031 C 12.34375 11.582031 19.214844 2.574219 21.183594 6.320312 C 23.410156 10.566406 12.34375 11.582031 12.34375 11.582031 Z M 12.34375 11.582031 " fill-opacity="1" fill-rule="nonzero"/><path fill="#ff8400" d="M 12.628906 11.5 C 12.628906 11.5 23.683594 9.015625 22.78125 13.152344 C 21.761719 17.835938 12.628906 11.5 12.628906 11.5 Z M 12.628906 11.5 " fill-opacity="1" fill-rule="nonzero"/><path fill="#ff8400" d="M 12.902344 11.621094 C 12.902344 11.621094 22.964844 16.824219 19.617188 19.410156 C 15.824219 22.34375 12.902344 11.621094 12.902344 11.621094 Z M 12.902344 11.621094 " fill-opacity="1" fill-rule="nonzero"/><path fill="#ff9d00" d="M 15.105469 11.824219 C 15.105469 12.179688 15.035156 12.523438 14.898438 12.851562 C 14.765625 13.179688 14.570312 13.46875 14.320312 13.722656 C 14.070312 13.972656 13.78125 14.167969 13.453125 14.304688 C 13.125 14.441406 12.78125 14.507812 12.425781 14.507812 C 12.074219 14.507812 11.730469 14.441406 11.402344 14.304688 C 11.074219 14.167969 10.785156 13.972656 10.535156 13.722656 C 10.285156 13.46875 10.089844 13.179688 9.953125 12.851562 C 9.820312 12.523438 9.75 12.179688 9.75 11.824219 C 9.75 11.464844 9.820312 11.125 9.953125 10.792969 C 10.089844 10.464844 10.285156 10.175781 10.535156 9.921875 C 10.785156 9.671875 11.074219 9.476562 11.402344 9.339844 C 11.730469 9.203125 12.074219 9.136719 12.425781 9.136719 C 12.78125 9.136719 13.125 9.203125 13.453125 9.339844 C 13.78125 9.476562 14.070312 9.671875 14.320312 9.921875 C 14.570312 10.175781 14.765625 10.464844 14.898438 10.792969 C 15.035156 11.125 15.105469 11.464844 15.105469 11.824219 Z M 15.105469 11.824219 " fill-opacity="1" fill-rule="nonzero"/></g></g></g></svg>