<svg xmlns="http://www.w3.org/2000/svg" xmlns:xlink="http://www.w3.org/1999/xlink" width="120" zoomAndPan="magnify" viewBox="0 0 90 89.999999" height="120" preserveAspectRatio="xMidYMid meet" version="1.0"><defs><clipPath id="caa0467647"><path d="M 0 0 L 45 0 L 45 45.75 L 0 45.75 Z M 0 0 " clip-rule="nonzero"/></clipPath><clipPath id="02e4b544ee"><path d="M 45 44 L 90 44 L 90 89.660156 L 45 89.660156 Z M 45 44 " clip-rule="nonzero"/></clipPath></defs><g clip-path="url(#caa0467647)"><path fill="#c7d880" d="M 26.433594 15.574219 C 27.070312 13.367188 27.894531 10.621094 28.105469 8.039062 C 28.253906 6.210938 28.105469 4.457031 27.265625 3.097656 C 26.820312 2.382812 26.386719 1.96875 25.914062 1.785156 C 25.191406 1.507812 24.441406 1.773438 23.664062 2.085938 C 22.507812 2.554688 21.296875 3.171875 20.066406 3.289062 C 19.066406 3.390625 18.1875 3.207031 17.375 3.097656 C 16.929688 3.042969 16.523438 3.007812 16.125 3.144531 C 15.746094 3.273438 15.402344 3.574219 15.050781 4.117188 C 14.136719 5.503906 14.015625 7.167969 14.285156 8.867188 C 14.664062 11.300781 15.828125 13.789062 16.839844 15.765625 C 17.21875 15.480469 17.625 15.214844 18.039062 14.976562 C 18.011719 14.929688 17.984375 14.875 17.976562 14.808594 C 17.625 13.625 17.347656 12.414062 16.976562 11.226562 C 16.847656 10.8125 17.078125 10.375 17.503906 10.246094 C 17.921875 10.117188 18.363281 10.34375 18.492188 10.769531 C 18.855469 11.925781 19.125 13.101562 19.464844 14.257812 C 19.84375 14.09375 20.234375 13.9375 20.632812 13.789062 C 21.148438 13.605469 21.640625 13.503906 22.113281 13.476562 C 22.019531 12.570312 21.992188 11.648438 21.832031 10.742188 C 21.761719 10.308594 22.054688 9.90625 22.480469 9.832031 C 22.917969 9.757812 23.324219 10.050781 23.398438 10.472656 C 23.5625 11.457031 23.589844 12.449219 23.703125 13.433594 C 23.710938 13.515625 23.710938 13.589844 23.695312 13.660156 C 24.554688 13.929688 25.3125 14.441406 25.96875 15.078125 C 26.125 15.242188 26.285156 15.40625 26.433594 15.574219 Z M 29.992188 22.828125 C 31.898438 22.902344 34.332031 22.441406 36.136719 22.121094 C 37.625 21.855469 40.632812 21.046875 42.296875 19.585938 C 42.84375 19.109375 43.242188 18.566406 43.289062 17.925781 C 43.316406 17.5 43.195312 17.042969 42.898438 16.535156 C 42.53125 15.902344 41.9375 15.601562 41.335938 15.296875 C 40.511719 14.875 39.679688 14.46875 39.050781 13.746094 C 38.488281 13.082031 38.109375 11.953125 37.644531 10.925781 C 37.460938 10.519531 37.265625 10.132812 37.007812 9.839844 C 36.820312 9.628906 36.609375 9.464844 36.332031 9.417969 C 34.898438 9.167969 33.507812 9.8125 32.25 10.796875 C 30.289062 12.328125 28.671875 14.726562 27.792969 16.5 C 27.746094 16.648438 27.707031 16.792969 27.671875 16.941406 C 27.652344 17.015625 27.617188 17.089844 27.578125 17.152344 C 27.746094 17.410156 27.902344 17.667969 28.042969 17.90625 C 28.753906 17.316406 29.457031 16.71875 30.179688 16.140625 C 30.519531 15.867188 31.019531 15.921875 31.289062 16.261719 C 31.566406 16.601562 31.511719 17.097656 31.167969 17.363281 C 30.390625 17.988281 29.625 18.640625 28.847656 19.273438 C 28.847656 19.273438 28.835938 19.285156 28.835938 19.285156 C 29.078125 19.734375 29.273438 20.175781 29.429688 20.605469 C 30.207031 20.257812 31.324219 19.789062 31.574219 19.640625 C 31.957031 19.421875 32.4375 19.550781 32.660156 19.917969 C 32.878906 20.292969 32.75 20.769531 32.378906 20.992188 C 32.074219 21.167969 30.53125 21.808594 29.828125 22.140625 C 29.863281 22.371094 29.890625 22.597656 29.902344 22.828125 C 29.957031 22.820312 29.976562 22.820312 29.992188 22.828125 Z M 15.265625 16.179688 C 15.191406 16.113281 15.117188 16.03125 15.070312 15.929688 C 13.988281 13.808594 11.535156 11.816406 8.917969 10.996094 C 6.429688 10.21875 3.765625 10.53125 2.101562 13.027344 C 1.601562 13.761719 1.691406 14.496094 1.898438 15.222656 C 2.164062 16.207031 2.617188 17.1875 2.71875 18.199219 C 2.8125 19.089844 2.542969 20 2.285156 20.898438 C 2.101562 21.5625 1.90625 22.222656 2.082031 22.875 C 2.683594 25.035156 4.3125 25.722656 6.171875 25.8125 C 8.296875 25.925781 10.722656 25.308594 12.5625 24.941406 C 12.636719 24.921875 12.722656 24.921875 12.796875 24.933594 C 12.703125 24.335938 12.683594 23.683594 12.757812 22.976562 C 12.664062 22.984375 12.5625 22.976562 12.472656 22.949219 C 11.851562 22.765625 11.230469 22.570312 10.621094 22.351562 C 10.214844 22.203125 10 21.746094 10.148438 21.339844 C 10.296875 20.9375 10.757812 20.726562 11.167969 20.871094 C 11.742188 21.082031 12.332031 21.257812 12.914062 21.433594 C 12.953125 21.441406 12.988281 21.460938 13.015625 21.46875 C 13.148438 20.964844 13.304688 20.476562 13.488281 20.019531 C 12.859375 19.707031 12.019531 19.253906 11.535156 19.070312 C 11.128906 18.914062 10.925781 18.464844 11.074219 18.0625 C 11.230469 17.65625 11.683594 17.457031 12.09375 17.601562 C 12.609375 17.796875 13.527344 18.28125 14.183594 18.613281 C 14.582031 17.960938 15.042969 17.371094 15.578125 16.832031 C 15.488281 16.621094 15.375 16.398438 15.265625 16.179688 Z M 21.160156 15.269531 C 22.710938 14.71875 23.925781 15.316406 24.859375 16.214844 C 25.949219 17.261719 26.710938 18.695312 27.238281 19.585938 C 28.429688 21.605469 28.617188 23.34375 28.089844 24.75 C 27.28125 26.890625 24.925781 28.210938 22.417969 28.660156 C 19.484375 29.1875 16.265625 28.535156 14.921875 26.253906 C 14.359375 25.308594 14.15625 24.078125 14.414062 22.5625 C 15.050781 18.851562 17.550781 16.554688 21.160156 15.269531 Z M 29.828125 24.425781 C 29.800781 24.554688 29.773438 24.683594 29.734375 24.8125 C 29.789062 24.839844 29.847656 24.867188 29.902344 24.90625 C 30.742188 25.519531 31.640625 26.054688 32.492188 26.648438 C 32.84375 26.90625 32.925781 27.394531 32.667969 27.742188 C 32.410156 28.09375 31.917969 28.175781 31.566406 27.917969 C 30.761719 27.347656 29.910156 26.835938 29.113281 26.265625 C 28.808594 26.769531 28.429688 27.238281 27.996094 27.660156 C 28.449219 28.320312 29.011719 28.929688 29.511719 29.554688 C 29.78125 29.894531 29.726562 30.390625 29.382812 30.65625 C 29.039062 30.921875 28.542969 30.867188 28.273438 30.527344 C 27.773438 29.902344 27.21875 29.285156 26.753906 28.632812 C 26.050781 29.09375 25.277344 29.460938 24.453125 29.746094 C 25.5625 31.785156 26.929688 34.46875 28.679688 36.5625 C 29.917969 38.039062 31.335938 39.234375 33.027344 39.59375 C 34.074219 39.8125 34.664062 39.097656 35.175781 38.28125 C 35.90625 37.113281 36.480469 35.6875 37.265625 34.925781 C 37.699219 34.511719 38.191406 34.238281 38.691406 33.972656 C 39.21875 33.695312 39.761719 33.457031 40.113281 32.859375 C 40.511719 32.1875 40.726562 31.335938 40.558594 30.5625 C 40.207031 28.992188 38.996094 27.910156 37.507812 27.082031 C 35.089844 25.769531 31.964844 25.089844 29.828125 24.425781 Z M 13.683594 27.257812 C 11.953125 28.507812 10.128906 29.875 8.808594 31.527344 C 7.539062 33.109375 6.734375 34.953125 6.996094 37.222656 C 7.140625 38.535156 7.652344 40.109375 8.917969 40.75 C 9.660156 41.117188 10.351562 40.878906 11.054688 40.632812 C 12.09375 40.261719 13.148438 39.859375 14.257812 40.050781 C 15.097656 40.199219 15.800781 40.621094 16.421875 41.164062 C 16.949219 41.625 17.429688 42.175781 17.921875 42.660156 C 18.660156 43.386719 19.4375 43.992188 20.734375 43.433594 C 21.085938 43.285156 21.410156 43.074219 21.6875 42.816406 C 22.84375 41.769531 23.210938 40.246094 23.25 38.601562 C 23.304688 35.855469 22.398438 32.777344 21.972656 30.609375 C 21.953125 30.507812 21.953125 30.417969 21.972656 30.324219 C 21.066406 30.425781 20.148438 30.433594 19.269531 30.332031 C 18.863281 31.546875 18.539062 32.785156 18.421875 34.0625 C 18.382812 34.496094 17.996094 34.816406 17.558594 34.769531 C 17.125 34.734375 16.800781 34.347656 16.847656 33.917969 C 16.96875 32.59375 17.292969 31.289062 17.707031 30.03125 C 16.894531 29.800781 16.144531 29.46875 15.476562 29.039062 C 14.785156 30.132812 14.339844 31.390625 13.96875 32.613281 C 13.839844 33.023438 13.40625 33.265625 12.980469 33.136719 C 12.5625 33.007812 12.324219 32.574219 12.453125 32.152344 C 12.886719 30.730469 13.425781 29.257812 14.257812 28 C 14.042969 27.761719 13.851562 27.515625 13.683594 27.257812 Z M 13.3125 11.566406 C 12.136719 10.667969 10.789062 9.941406 9.398438 9.5 C 6.246094 8.519531 2.90625 8.996094 0.785156 12.15625 C 0 13.332031 0.0546875 14.480469 0.371094 15.636719 C 0.621094 16.535156 1.054688 17.4375 1.148438 18.355469 C 1.222656 19.054688 0.960938 19.761719 0.769531 20.460938 C 0.5 21.40625 0.304688 22.351562 0.5625 23.277344 C 1.386719 26.226562 3.5625 27.238281 6.097656 27.375 C 7.945312 27.46875 10 27.074219 11.75 26.707031 C 10.222656 27.84375 8.722656 29.09375 7.558594 30.535156 C 6.03125 32.4375 5.097656 34.660156 5.414062 37.386719 C 5.617188 39.179688 6.46875 41.265625 8.195312 42.136719 C 9.363281 42.726562 10.472656 42.488281 11.582031 42.089844 C 12.359375 41.816406 13.148438 41.429688 13.980469 41.578125 C 14.523438 41.667969 14.96875 41.972656 15.375 42.320312 C 15.886719 42.761719 16.328125 43.285156 16.800781 43.746094 C 17.996094 44.921875 19.28125 45.738281 21.363281 44.839844 C 21.871094 44.617188 22.34375 44.316406 22.75 43.945312 C 24.230469 42.605469 24.785156 40.695312 24.832031 38.601562 C 24.878906 36.460938 24.367188 34.117188 23.925781 32.125 C 24.90625 33.917969 26.0625 35.910156 27.441406 37.5625 C 28.921875 39.335938 30.660156 40.703125 32.6875 41.128906 C 34.167969 41.4375 35.203125 40.824219 36.015625 39.804688 C 36.515625 39.1875 36.921875 38.398438 37.320312 37.65625 C 37.652344 37.03125 37.96875 36.433594 38.367188 36.046875 C 38.78125 35.644531 39.292969 35.433594 39.761719 35.175781 C 40.421875 34.816406 41.03125 34.394531 41.476562 33.640625 C 42.066406 32.640625 42.355469 31.363281 42.09375 30.214844 C 41.652344 28.203125 40.171875 26.761719 38.265625 25.695312 C 37.007812 24.996094 35.554688 24.464844 34.136719 24.023438 C 34.953125 23.894531 35.730469 23.757812 36.433594 23.628906 C 38.109375 23.324219 41.484375 22.371094 43.363281 20.726562 C 44.085938 20.089844 44.601562 19.355469 44.796875 18.539062 C 45 17.695312 44.898438 16.75 44.289062 15.699219 C 43.761719 14.792969 42.945312 14.285156 42.085938 13.84375 C 41.449219 13.515625 40.773438 13.238281 40.28125 12.667969 C 39.679688 11.972656 39.375 10.640625 38.820312 9.621094 C 38.3125 8.683594 37.625 7.984375 36.636719 7.820312 C 34.777344 7.496094 32.9375 8.234375 31.308594 9.507812 C 30.519531 10.125 29.789062 10.859375 29.125 11.648438 C 29.390625 10.484375 29.605469 9.296875 29.699219 8.140625 C 29.875 5.953125 29.632812 3.878906 28.632812 2.242188 C 27.914062 1.125 27.152344 0.542969 26.386719 0.277344 C 25.597656 0.0117188 24.785156 0.0742188 23.953125 0.316406 C 22.65625 0.691406 21.304688 1.589844 19.910156 1.730469 C 18.789062 1.839844 17.828125 1.527344 16.949219 1.492188 C 15.792969 1.445312 14.738281 1.710938 13.71875 3.253906 C 12.589844 4.972656 12.386719 7.011719 12.710938 9.105469 C 12.839844 9.921875 13.054688 10.75 13.3125 11.566406 Z M 13.3125 11.566406 " fill-opacity="1" fill-rule="evenodd"/></g><g clip-path="url(#02e4b544ee)"><path fill="#c7d880" d="M 71.433594 59.484375 C 72.070312 57.277344 72.894531 54.53125 73.105469 51.949219 C 73.253906 50.121094 73.105469 48.367188 72.265625 47.007812 C 71.820312 46.292969 71.386719 45.878906 70.914062 45.695312 C 70.191406 45.417969 69.441406 45.6875 68.664062 46 C 67.507812 46.464844 66.296875 47.082031 65.066406 47.203125 C 64.066406 47.300781 63.1875 47.117188 62.375 47.007812 C 61.929688 46.953125 61.523438 46.917969 61.125 47.054688 C 60.746094 47.183594 60.402344 47.484375 60.050781 48.027344 C 59.136719 49.414062 59.015625 51.078125 59.285156 52.777344 C 59.664062 55.210938 60.828125 57.699219 61.839844 59.675781 C 62.21875 59.390625 62.625 59.125 63.039062 58.886719 C 63.011719 58.839844 62.984375 58.785156 62.976562 58.71875 C 62.625 57.535156 62.347656 56.324219 61.976562 55.136719 C 61.847656 54.726562 62.078125 54.285156 62.503906 54.15625 C 62.921875 54.027344 63.363281 54.257812 63.492188 54.679688 C 63.855469 55.835938 64.125 57.011719 64.464844 58.167969 C 64.84375 58.003906 65.234375 57.847656 65.632812 57.699219 C 66.148438 57.515625 66.640625 57.417969 67.113281 57.386719 C 67.019531 56.480469 66.992188 55.5625 66.832031 54.652344 C 66.761719 54.21875 67.054688 53.816406 67.480469 53.742188 C 67.917969 53.667969 68.324219 53.960938 68.398438 54.386719 C 68.5625 55.367188 68.589844 56.359375 68.703125 57.34375 C 68.710938 57.425781 68.710938 57.5 68.695312 57.574219 C 69.554688 57.839844 70.3125 58.351562 70.96875 58.988281 C 71.125 59.152344 71.285156 59.316406 71.433594 59.484375 Z M 74.992188 66.738281 C 76.898438 66.8125 79.332031 66.355469 81.136719 66.03125 C 82.625 65.765625 85.632812 64.957031 87.296875 63.496094 C 87.84375 63.019531 88.242188 62.476562 88.289062 61.835938 C 88.316406 61.410156 88.195312 60.953125 87.898438 60.449219 C 87.53125 59.8125 86.9375 59.511719 86.335938 59.207031 C 85.511719 58.785156 84.679688 58.378906 84.050781 57.65625 C 83.488281 56.992188 83.109375 55.863281 82.644531 54.835938 C 82.460938 54.429688 82.265625 54.046875 82.007812 53.75 C 81.820312 53.539062 81.609375 53.375 81.332031 53.328125 C 79.898438 53.082031 78.507812 53.722656 77.25 54.707031 C 75.289062 56.242188 73.671875 58.636719 72.792969 60.410156 C 72.746094 60.558594 72.707031 60.703125 72.671875 60.851562 C 72.652344 60.925781 72.617188 61 72.578125 61.0625 C 72.746094 61.320312 72.902344 61.578125 73.042969 61.816406 C 73.753906 61.226562 74.457031 60.632812 75.179688 60.050781 C 75.519531 59.777344 76.019531 59.832031 76.289062 60.171875 C 76.566406 60.511719 76.511719 61.007812 76.167969 61.273438 C 75.390625 61.898438 74.625 62.550781 73.847656 63.183594 C 73.847656 63.183594 73.835938 63.195312 73.835938 63.195312 C 74.078125 63.644531 74.273438 64.085938 74.429688 64.515625 C 75.207031 64.167969 76.324219 63.699219 76.574219 63.550781 C 76.957031 63.332031 77.4375 63.460938 77.660156 63.828125 C 77.878906 64.203125 77.75 64.683594 77.378906 64.902344 C 77.074219 65.078125 75.53125 65.71875 74.828125 66.050781 C 74.863281 66.28125 74.890625 66.511719 74.902344 66.738281 C 74.957031 66.730469 74.976562 66.730469 74.992188 66.738281 Z M 60.265625 60.089844 C 60.191406 60.023438 60.117188 59.941406 60.070312 59.839844 C 58.988281 57.71875 56.535156 55.726562 53.917969 54.910156 C 51.429688 54.128906 48.765625 54.441406 47.101562 56.9375 C 46.601562 57.671875 46.691406 58.40625 46.898438 59.132812 C 47.164062 60.117188 47.617188 61.101562 47.71875 62.109375 C 47.8125 63 47.542969 63.910156 47.285156 64.8125 C 47.101562 65.472656 46.90625 66.132812 47.082031 66.785156 C 47.683594 68.945312 49.3125 69.632812 51.171875 69.726562 C 53.296875 69.835938 55.722656 69.21875 57.5625 68.851562 C 57.636719 68.835938 57.722656 68.835938 57.796875 68.84375 C 57.703125 68.246094 57.683594 67.59375 57.757812 66.886719 C 57.664062 66.894531 57.5625 66.886719 57.472656 66.859375 C 56.851562 66.675781 56.230469 66.484375 55.621094 66.261719 C 55.214844 66.113281 55 65.65625 55.148438 65.25 C 55.296875 64.847656 55.757812 64.636719 56.167969 64.78125 C 56.742188 64.996094 57.332031 65.167969 57.914062 65.34375 C 57.953125 65.351562 57.988281 65.371094 58.015625 65.378906 C 58.148438 64.875 58.304688 64.386719 58.488281 63.929688 C 57.859375 63.617188 57.019531 63.167969 56.535156 62.984375 C 56.128906 62.828125 55.925781 62.375 56.074219 61.972656 C 56.230469 61.566406 56.683594 61.367188 57.09375 61.511719 C 57.609375 61.707031 58.527344 62.191406 59.183594 62.523438 C 59.582031 61.871094 60.042969 61.285156 60.578125 60.742188 C 60.488281 60.53125 60.375 60.308594 60.265625 60.089844 Z M 66.160156 59.179688 C 67.710938 58.628906 68.925781 59.226562 69.859375 60.125 C 70.949219 61.171875 71.710938 62.605469 72.238281 63.496094 C 73.429688 65.519531 73.617188 67.253906 73.089844 68.660156 C 72.28125 70.800781 69.925781 72.121094 67.417969 72.574219 C 64.484375 73.097656 61.265625 72.445312 59.921875 70.164062 C 59.359375 69.21875 59.15625 67.988281 59.414062 66.472656 C 60.050781 62.761719 62.550781 60.464844 66.160156 59.179688 Z M 74.828125 68.339844 C 74.800781 68.464844 74.773438 68.59375 74.734375 68.722656 C 74.789062 68.75 74.847656 68.777344 74.902344 68.816406 C 75.742188 69.429688 76.640625 69.964844 77.492188 70.5625 C 77.84375 70.816406 77.925781 71.304688 77.667969 71.652344 C 77.410156 72.003906 76.917969 72.085938 76.566406 71.828125 C 75.761719 71.257812 74.910156 70.746094 74.113281 70.175781 C 73.808594 70.679688 73.429688 71.148438 72.996094 71.570312 C 73.449219 72.234375 74.011719 72.839844 74.511719 73.464844 C 74.78125 73.804688 74.726562 74.300781 74.382812 74.566406 C 74.039062 74.832031 73.542969 74.777344 73.273438 74.4375 C 72.773438 73.8125 72.21875 73.199219 71.753906 72.546875 C 71.050781 73.003906 70.277344 73.371094 69.453125 73.65625 C 70.5625 75.695312 71.929688 78.378906 73.679688 80.472656 C 74.917969 81.953125 76.335938 83.144531 78.027344 83.503906 C 79.074219 83.722656 79.664062 83.007812 80.175781 82.191406 C 80.90625 81.023438 81.480469 79.601562 82.265625 78.835938 C 82.699219 78.425781 83.191406 78.148438 83.691406 77.882812 C 84.21875 77.605469 84.761719 77.367188 85.113281 76.769531 C 85.511719 76.101562 85.726562 75.246094 85.558594 74.472656 C 85.207031 72.902344 83.996094 71.820312 82.507812 70.992188 C 80.089844 69.679688 76.964844 69 74.828125 68.339844 Z M 58.683594 71.167969 C 56.953125 72.417969 55.128906 73.785156 53.808594 75.4375 C 52.539062 77.019531 51.734375 78.863281 51.996094 81.132812 C 52.140625 82.449219 52.652344 84.019531 53.917969 84.660156 C 54.660156 85.027344 55.351562 84.789062 56.054688 84.542969 C 57.09375 84.175781 58.148438 83.769531 59.257812 83.964844 C 60.097656 84.109375 60.800781 84.53125 61.421875 85.074219 C 61.949219 85.535156 62.429688 86.085938 62.921875 86.570312 C 63.660156 87.296875 64.4375 87.902344 65.734375 87.34375 C 66.085938 87.195312 66.410156 86.984375 66.6875 86.726562 C 67.84375 85.679688 68.210938 84.15625 68.25 82.511719 C 68.304688 79.765625 67.398438 76.6875 66.972656 74.519531 C 66.953125 74.417969 66.953125 74.328125 66.972656 74.234375 C 66.066406 74.335938 65.148438 74.34375 64.269531 74.246094 C 63.863281 75.457031 63.539062 76.695312 63.421875 77.972656 C 63.382812 78.40625 62.996094 78.726562 62.558594 78.679688 C 62.125 78.644531 61.800781 78.257812 61.847656 77.828125 C 61.96875 76.503906 62.292969 75.199219 62.707031 73.941406 C 61.894531 73.710938 61.144531 73.382812 60.476562 72.949219 C 59.785156 74.042969 59.339844 75.300781 58.96875 76.523438 C 58.839844 76.9375 58.40625 77.175781 57.980469 77.046875 C 57.5625 76.917969 57.324219 76.484375 57.453125 76.0625 C 57.886719 74.640625 58.425781 73.167969 59.257812 71.910156 C 59.042969 71.671875 58.851562 71.425781 58.683594 71.167969 Z M 58.3125 55.476562 C 57.136719 54.578125 55.789062 53.851562 54.398438 53.410156 C 51.246094 52.429688 47.90625 52.90625 45.785156 56.066406 C 45 57.242188 45.054688 58.390625 45.371094 59.546875 C 45.621094 60.449219 46.054688 61.347656 46.148438 62.265625 C 46.222656 62.964844 45.960938 63.671875 45.769531 64.371094 C 45.5 65.316406 45.304688 66.261719 45.5625 67.191406 C 46.386719 70.136719 48.5625 71.148438 51.097656 71.285156 C 52.945312 71.378906 55 70.984375 56.75 70.617188 C 55.222656 71.753906 53.722656 73.003906 52.558594 74.445312 C 51.03125 76.347656 50.097656 78.570312 50.414062 81.300781 C 50.617188 83.089844 51.46875 85.175781 53.195312 86.046875 C 54.363281 86.636719 55.472656 86.398438 56.582031 86.003906 C 57.359375 85.726562 58.148438 85.339844 58.980469 85.488281 C 59.523438 85.578125 59.96875 85.882812 60.375 86.230469 C 60.886719 86.671875 61.328125 87.195312 61.800781 87.65625 C 62.996094 88.832031 64.28125 89.648438 66.363281 88.75 C 66.871094 88.527344 67.34375 88.226562 67.75 87.859375 C 69.230469 86.515625 69.785156 84.605469 69.832031 82.511719 C 69.878906 80.371094 69.367188 78.027344 68.925781 76.035156 C 69.90625 77.828125 71.0625 79.820312 72.441406 81.472656 C 73.921875 83.246094 75.660156 84.613281 77.6875 85.039062 C 79.167969 85.351562 80.203125 84.734375 81.015625 83.714844 C 81.515625 83.097656 81.921875 82.308594 82.320312 81.566406 C 82.652344 80.941406 82.96875 80.34375 83.367188 79.957031 C 83.78125 79.554688 84.292969 79.34375 84.761719 79.085938 C 85.421875 78.726562 86.03125 78.304688 86.476562 77.550781 C 87.066406 76.550781 87.355469 75.273438 87.09375 74.125 C 86.652344 72.113281 85.171875 70.671875 83.265625 69.605469 C 82.007812 68.90625 80.554688 68.375 79.136719 67.933594 C 79.953125 67.804688 80.730469 67.667969 81.433594 67.539062 C 83.109375 67.234375 86.484375 66.28125 88.363281 64.636719 C 89.085938 64.003906 89.601562 63.265625 89.796875 62.449219 C 90 61.605469 89.898438 60.660156 89.289062 59.613281 C 88.761719 58.703125 87.945312 58.195312 87.085938 57.757812 C 86.449219 57.425781 85.773438 57.148438 85.28125 56.582031 C 84.679688 55.882812 84.375 54.550781 83.820312 53.53125 C 83.3125 52.59375 82.625 51.894531 81.636719 51.730469 C 79.777344 51.410156 77.9375 52.144531 76.308594 53.421875 C 75.519531 54.035156 74.789062 54.769531 74.125 55.5625 C 74.390625 54.394531 74.605469 53.210938 74.699219 52.050781 C 74.875 49.867188 74.632812 47.789062 73.632812 46.15625 C 72.914062 45.035156 72.152344 44.453125 71.386719 44.1875 C 70.597656 43.921875 69.785156 43.988281 68.953125 44.226562 C 67.65625 44.601562 66.304688 45.503906 64.910156 45.640625 C 63.789062 45.75 62.828125 45.4375 61.949219 45.402344 C 60.792969 45.355469 59.738281 45.621094 58.71875 47.164062 C 57.589844 48.882812 57.386719 50.921875 57.710938 53.015625 C 57.839844 53.832031 58.054688 54.660156 58.3125 55.476562 Z M 58.3125 55.476562 " fill-opacity="1" fill-rule="evenodd"/></g></svg>