<svg xmlns="http://www.w3.org/2000/svg" viewBox="0 0 300 200">
  <path d="M150,10 C120,40 80,30 60,70 C40,110 80,150 120,160 C160,170 200,150 220,110 C240,70 200,40 170,20 C160,10 160,0 150,10 Z" fill="#e2dbc9" opacity="0.7"/>
  <path d="M90,50 C70,70 60,100 70,130 C80,160 110,180 140,170 C170,160 190,130 180,100 C170,70 140,50 110,60 C100,40 90,50 90,50 Z" fill="#d8d0b8" opacity="0.5"/>
  <g transform="translate(60, 40)">
    <path d="M0,0 C10,20 30,30 50,20 C70,10 80,-10 70,-30 C60,-50 40,-60 20,-50 C0,-40 -10,-20 0,0 Z" fill="#e2dbc9" opacity="0.6"/>
  </g>
  <g transform="translate(180, 60)">
    <path d="M0,0 C-10,20 -30,30 -50,20 C-70,10 -80,-10 -70,-30 C-60,-50 -40,-60 -20,-50 C0,-40 10,-20 0,0 Z" fill="#d8d0b8" opacity="0.5"/>
  </g>
</svg>
